{"title":"You Dont Mess With The Zohan 2008 720p BRRip H264 AAC-Rx(Phoenix","uid":5833760,"size":1843275684,"categoryP":"video","categoryS":"hd___movies","magnet":"?xt=urn:btih:e80eb7442a98d26c227e27c7b15932afaedb5fc0&amp;dn=You+Dont+Mess+With+The+Zohan+2008+720p+BRRip+H264+AAC-Rx%28Phoenix&amp;tr=udp%3A%2F%2Ftracker.openbittorrent.com%3A80&amp;tr=udp%3A%2F%2Fopen.demonii.com%3A1337&amp;tr=udp%3A%2F%2Ftracker.coppersurfer.tk%3A6969&amp;tr=udp%3A%2F%2Fexodus.desync.com%3A6969","seeders":0,"leechers":0,"uploader":"rev-x","files":8,"time":1284652279,"description":" You Dont Mess With The Zohan 2008 720p BRRip H264 AAC-Rx(Phoenix-RG).mp4\n      Format : MPEG-4 / AVC\n      File size : 1.72 GiB\n      Duration : 1h 56mn\n      Bit rate : 1 800 Kbps\n      Width : 1 280 pixels\n      Height : 688 pixels\n      Display aspect ratio : 1.860\n      Frame rate : 23.976 fps\n      Resolution : 24 bits\n      Colorimetry : 4:2:0\n      Scan type : Progressive\n      Bits/(Pixel*Frame) : 0.085\n      Stream size : 1.47 GiB (85%)\n      \n     \nAUDIO:\n      Format : AAC / LC\n      Duration : 1h 56mn\n      Bit rate mode : Variable\n      Bit rate : 302 Kbps\n      Channel(s) : 6 channels\n      Channel positions : Front: L C R, Rear: L R, LFE\n      Sampling rate : 48.0 KHz\n      Resolution : 16 bits\n      Stream size : 253 MiB (14%)\n\nSCREEN:\n &lt;a href=&quot;\nhttp://img269.imageshack.us/img269/4677/vlcsnap2010091213h30m59.jpg&quot; rel=&quot;nofollow&quot; target=&quot;_NEW&quot;&gt;\nhttp://img269.imageshack.us/img269/4677/vlcsnap2010091213h30m59.jpg&lt;/a&gt;\n &lt;a href=&quot;\nhttp://img704.imageshack.us/img704/5384/vlcsnap2010091213h31m36.jpg&quot; rel=&quot;nofollow&quot; target=&quot;_NEW&quot;&gt;\nhttp://img704.imageshack.us/img704/5384/vlcsnap2010091213h31m36.jpg&lt;/a&gt;\n &lt;a href=&quot;\nhttp://img137.imageshack.us/img137/2084/vlcsnap2010091213h38m15.jpg&quot; rel=&quot;nofollow&quot; target=&quot;_NEW&quot;&gt;\nhttp://img137.imageshack.us/img137/2084/vlcsnap2010091213h38m15.jpg&lt;/a&gt;","torrent":{"xt":"urn:btih:e80eb7442a98d26c227e27c7b15932afaedb5fc0","amp;dn":"You+Dont+Mess+With+The+Zohan+2008+720p+BRRip+H264+AAC-Rx%28Phoenix","amp;tr":["udp%3A%2F%2Ftracker.openbittorrent.com%3A80","udp%3A%2F%2Fopen.demonii.com%3A1337","udp%3A%2F%2Ftracker.coppersurfer.tk%3A6969","udp%3A%2F%2Fexodus.desync.com%3A6969"],"infoHash":"e80eb7442a98d26c227e27c7b15932afaedb5fc0","infoHashBuffer":{"type":"Buffer","data":[232,14,183,68,42,152,210,108,34,126,39,199,177,89,50,175,174,219,95,192]},"announce":[],"urlList":[]}}